<svg xmlns="http://www.w3.org/2000/svg" viewBox="0 0 448.25 448.15"><defs><style>.cls-1{fill:#fff;}</style></defs><title>Asset 6</title><g id="Layer_2" data-name="Layer 2"><g id="Layer_1-2" data-name="Layer 1"><g id="_Group_" data-name="&lt;Group&gt;"><path class="cls-1" d="M446.67,131.67c2.11,37,2.11,147.8,0,184.8-1.79,35.9-10,67.7-36.19,93.9s-58,34.5-93.9,36.2c-37,2.1-147.91,2.1-184.91,0-35.89-1.8-67.59-10-93.89-36.2s-34.5-58-36.2-93.9c-2.1-37-2.1-147.9,0-184.9,1.8-35.9,9.9-67.7,36.2-93.9s58.1-34.4,93.89-36.1c37-2.09,147.91-2.09,184.91,0,35.9,1.8,67.7,10,93.9,36.2S445,95.77,446.67,131.67Zm-38.79,92.4c0-32.6,2.7-102.6-9-132.1a75.63,75.63,0,0,0-42.6-42.6c-29.4-11.6-99.5-9-132.11-9s-102.59-2.7-132.09,9A75.63,75.63,0,0,0,49.48,92c-11.6,29.4-9,99.5-9,132.1s-2.7,102.6,9,132.1a75.63,75.63,0,0,0,42.6,42.6c29.4,11.6,99.5,9,132.09,9s102.61,2.7,132.11-9a75.63,75.63,0,0,0,42.6-42.6C410.58,326.77,407.88,256.67,407.88,224.07Z"/><circle class="cls-1" cx="343.78" cy="104.47" r="26.8"/><path class="cls-1" d="M224.17,109.17a114.9,114.9,0,1,1-114.89,114.9A114.72,114.72,0,0,1,224.17,109.17Zm74.71,114.9a74.7,74.7,0,1,0-74.71,74.7A74.77,74.77,0,0,0,298.88,224.07Z"/></g></g></g></svg>