<svg xmlns="http://www.w3.org/2000/svg" viewBox="0 0 454.82 454.82"><defs><style>.cls-1{fill:#fff;}</style></defs><title>Asset 5</title><g id="Layer_2" data-name="Layer 2"><g id="Layer_1-2" data-name="Layer 1"><g id="_Group_" data-name="&lt;Group&gt;"><path class="cls-1" d="M441.9,321.53a21.3,21.3,0,0,1,12.37,24.38L433,438.3a21.32,21.32,0,0,1-20.77,16.52C184.36,454.82,0,270.13,0,42.64A21.32,21.32,0,0,1,16.52,21.87L108.91.55A21.32,21.32,0,0,1,133.3,12.92l42.64,99.5a21.33,21.33,0,0,1-6.09,24.9L116,181.38A329.55,329.55,0,0,0,273.45,338.83L317.52,285a21.29,21.29,0,0,1,24.89-6.09Z"/></g></g></g></svg>