<svg xmlns="http://www.w3.org/2000/svg" viewBox="0 0 558.21 453.36"><defs><style>.cls-1{fill:#fff;}</style></defs><title>Asset 4</title><g id="Layer_2" data-name="Layer 2"><g id="Layer_1-2" data-name="Layer 1"><g id="_Group_" data-name="&lt;Group&gt;"><path class="cls-1" d="M558.21,53.84A246,246,0,0,1,500.83,113c.35,5,.35,9.93.35,14.89,0,151.24-115.11,325.49-325.51,325.49A323.2,323.2,0,0,1,0,402a237.07,237.07,0,0,0,27.63,1.42,229.18,229.18,0,0,0,142-48.88,114.61,114.61,0,0,1-107-79.35A143.19,143.19,0,0,0,84.3,277a121.32,121.32,0,0,0,30.1-3.89A114.42,114.42,0,0,1,22.67,160.8v-1.41a115.22,115.22,0,0,0,51.71,14.52A114.58,114.58,0,0,1,39,20.9,325.2,325.2,0,0,0,274.85,140.61,129.15,129.15,0,0,1,272,114.4,114.51,114.51,0,0,1,470,36.13,225.11,225.11,0,0,0,542.62,8.5a114.06,114.06,0,0,1-50.29,63A229.21,229.21,0,0,0,558.21,53.84Z"/></g></g></g></svg>