<svg xmlns="http://www.w3.org/2000/svg" viewBox="0 0 648 454.82"><defs><style>.cls-1{fill:#fff;}</style></defs><title>Asset 3</title><g id="Layer_2" data-name="Layer 2"><g id="Layer_1-2" data-name="Layer 1"><g id="_Group_" data-name="&lt;Group&gt;"><path class="cls-1" d="M646.34,419.29c5.9,23.6-4.33,35.53-24.54,35.53H551c-27,0-34.89-25.44-83-82.29-42.11-47.9-60.15-54.15-70.62-54.15-22.61,0-18.52,8.95-18.52,103.9,0,20.61-5.54,32.54-50.65,32.54C253.1,454.82,170.58,401,112,301.61,24.06,156.06,0,45.91,0,23.74,0,11.23,4.09,0,24.3,0H95.15c18.17,0,25,9.38,32,32.55,34.65,119.39,93.11,223.72,117.17,223.72,9,0,13.11-5,13.11-32V100.91c-2.65-56.85-28.15-61.54-28.15-81.72C229.28,10,236,0,247.33,0H358.72c14.92,0,20,9.52,20,30.84V196.71c0,17.77,6.85,24,11.31,24,9,0,16.6-6.25,33.08-25.72,51-67.37,87.09-171.27,87.09-171.27C514.62,11.23,522.92,0,541,0h70.85c21.41,0,25.86,13.08,21.41,30.84-8.9,48.75-95.39,192.59-95.51,192.73-7.46,14.22-10.47,21.32,0,37.24C541.81,267.64,632.87,369.69,646.34,419.29Z"/></g></g></g></svg>